<svg xmlns="http://www.w3.org/2000/svg" width="375" viewBox="0 0 375 375" height="375" version="1.0"><path fill="#7201A5" d="M 75.015625 151.820312 L 153.761719 151.820312 L 153.761719 187.820312 L 75.015625 187.820312 L 75.015625 151.820312"/><g><g><g><path d="M 10.84375 0 L 6.65625 -5.75 L 2.546875 0 L 0.265625 0 L 5.484375 -7.140625 L 0.578125 -13.921875 L 2.84375 -13.921875 L 6.75 -8.578125 L 10.609375 -13.921875 L 12.765625 -13.921875 L 7.859375 -7.203125 L 13.125 0 Z M 10.84375 0" transform="translate(56.465 176.786)"/></g></g></g><g fill="#FFF"><g><g><path d="M 7.53125 -13.9375 C 9.332031 -13.9375 10.75 -13.503906 11.78125 -12.640625 C 12.820312 -11.773438 13.34375 -10.585938 13.34375 -9.078125 C 13.34375 -7.566406 12.820312 -6.378906 11.78125 -5.515625 C 10.75 -4.648438 9.332031 -4.21875 7.53125 -4.21875 L 4.078125 -4.21875 L 4.078125 0 L 2.09375 0 L 2.09375 -13.9375 Z M 7.46875 -5.953125 C 8.726562 -5.953125 9.6875 -6.21875 10.34375 -6.75 C 11.007812 -7.289062 11.34375 -8.066406 11.34375 -9.078125 C 11.34375 -10.085938 11.007812 -10.859375 10.34375 -11.390625 C 9.6875 -11.929688 8.726562 -12.203125 7.46875 -12.203125 L 4.078125 -12.203125 L 4.078125 -5.953125 Z M 7.46875 -5.953125" transform="translate(79.79 175.535)"/></g></g></g><g fill="#FFF"><g><g><path d="M 12.203125 -1.734375 L 12.203125 0 L 2.09375 0 L 2.09375 -13.9375 L 11.921875 -13.9375 L 11.921875 -12.203125 L 4.078125 -12.203125 L 4.078125 -7.921875 L 11.0625 -7.921875 L 11.0625 -6.234375 L 4.078125 -6.234375 L 4.078125 -1.734375 Z M 12.203125 -1.734375" transform="translate(97.884 175.535)"/></g></g></g><g fill="#FFF"><g><g><path d="M 11.40625 0 L 8.40625 -4.28125 C 8.03125 -4.25 7.738281 -4.234375 7.53125 -4.234375 L 4.078125 -4.234375 L 4.078125 0 L 2.09375 0 L 2.09375 -13.9375 L 7.53125 -13.9375 C 9.332031 -13.9375 10.75 -13.503906 11.78125 -12.640625 C 12.820312 -11.773438 13.34375 -10.585938 13.34375 -9.078125 C 13.34375 -8.003906 13.078125 -7.085938 12.546875 -6.328125 C 12.015625 -5.578125 11.253906 -5.023438 10.265625 -4.671875 L 13.578125 0 Z M 7.46875 -5.9375 C 8.726562 -5.9375 9.6875 -6.207031 10.34375 -6.75 C 11.007812 -7.289062 11.34375 -8.066406 11.34375 -9.078125 C 11.34375 -10.085938 11.007812 -10.859375 10.34375 -11.390625 C 9.6875 -11.929688 8.726562 -12.203125 7.46875 -12.203125 L 4.078125 -12.203125 L 4.078125 -5.9375 Z M 7.46875 -5.9375" transform="translate(132 175.535)"/></g></g></g><g><g><g><path d="M 2.09375 -13.921875 L 4.078125 -13.921875 L 4.078125 0 L 2.09375 0 Z M 2.09375 -13.921875" transform="translate(153.855 175.497)"/></g></g></g><g><g><g><path d="M 12.1875 -1.734375 L 12.1875 0 L 2.09375 0 L 2.09375 -13.921875 L 11.921875 -13.921875 L 11.921875 -12.1875 L 4.078125 -12.1875 L 4.078125 -7.921875 L 11.0625 -7.921875 L 11.0625 -6.21875 L 4.078125 -6.21875 L 4.078125 -1.734375 Z M 12.1875 -1.734375" transform="translate(163.742 175.497)"/></g></g></g><g><g><g><path d="M 14.0625 -13.921875 L 14.0625 0 L 12.4375 0 L 4.078125 -10.390625 L 4.078125 0 L 2.09375 0 L 2.09375 -13.921875 L 3.71875 -13.921875 L 12.078125 -3.546875 L 12.078125 -13.921875 Z M 14.0625 -13.921875" transform="translate(180.787 175.497)"/></g></g></g><g><g><g><path d="M 8.3125 0.15625 C 6.914062 0.15625 5.65625 -0.148438 4.53125 -0.765625 C 3.414062 -1.378906 2.539062 -2.226562 1.90625 -3.3125 C 1.269531 -4.394531 0.953125 -5.613281 0.953125 -6.96875 C 0.953125 -8.3125 1.269531 -9.523438 1.90625 -10.609375 C 2.539062 -11.691406 3.421875 -12.539062 4.546875 -13.15625 C 5.679688 -13.769531 6.941406 -14.078125 8.328125 -14.078125 C 9.421875 -14.078125 10.414062 -13.894531 11.3125 -13.53125 C 12.21875 -13.164062 12.988281 -12.628906 13.625 -11.921875 L 12.328125 -10.65625 C 11.285156 -11.757812 9.976562 -12.3125 8.40625 -12.3125 C 7.375 -12.3125 6.441406 -12.078125 5.609375 -11.609375 C 4.773438 -11.148438 4.117188 -10.507812 3.640625 -9.6875 C 3.171875 -8.875 2.9375 -7.96875 2.9375 -6.96875 C 2.9375 -5.957031 3.171875 -5.039062 3.640625 -4.21875 C 4.117188 -3.40625 4.773438 -2.765625 5.609375 -2.296875 C 6.441406 -1.835938 7.375 -1.609375 8.40625 -1.609375 C 9.957031 -1.609375 11.265625 -2.164062 12.328125 -3.28125 L 13.625 -2.03125 C 12.988281 -1.3125 12.210938 -0.765625 11.296875 -0.390625 C 10.390625 -0.0234375 9.394531 0.15625 8.3125 0.15625 Z M 8.3125 0.15625" transform="translate(200.657 175.497)"/></g></g></g></svg>